<svg width="45" height="45" viewBox="0 0 45 45" fill="none" xmlns="http://www.w3.org/2000/svg">
  <path 
    d="M22.5 3C11.7308 3 3 11.7308 3 22.5C3 33.2692 11.7308 42 22.5 42C26.7115 42 30.6154 40.6731 33.8077 38.4231L38.4231 42L42 38.4231L38.4231 33.8077C40.6731 30.6154 42 26.7115 42 22.5C42 11.7308 33.2692 3 22.5 3ZM22.5 36.9231C14.5385 36.9231 8.07692 30.4615 8.07692 22.5C8.07692 14.5385 14.5385 8.07692 22.5 8.07692C30.4615 8.07692 36.9231 14.5385 36.9231 22.5C36.9231 24.9231 36.2308 27.1731 35.0769 29.1346L31.5 25.5577L27.9231 29.1346L31.5 32.7115C29.5385 35.1923 26.1923 36.9231 22.5 36.9231Z"
    fill="currentColor"
  />
</svg> 